<?xml version="1.0" encoding="utf-8"?>
<!-- Generator: Adobe Illustrator 16.0.0, SVG Export Plug-In . SVG Version: 6.00 Build 0)  -->
<!DOCTYPE svg PUBLIC "-//W3C//DTD SVG 1.1//EN" "http://www.w3.org/Graphics/SVG/1.1/DTD/svg11.dtd">
<svg version="1.1" id="Capa_1" xmlns="http://www.w3.org/2000/svg" xmlns:xlink="http://www.w3.org/1999/xlink" x="0px" y="0px"
	 width="283.46px" height="105.52px" viewBox="0 0 283.46 105.52" enable-background="new 0 0 283.46 105.52" xml:space="preserve">
<path fill="#F15B44" d="M272.854,10.78h-70.082c-3.813,0-6.91,3.095-6.91,6.91v70.083c0,3.814,3.095,6.907,6.91,6.907h70.082
	c3.813,0,6.91-3.092,6.91-6.907V17.69C279.764,13.875,276.669,10.78,272.854,10.78z M220.539,82.345h-12.336V42.86h12.336V82.345z
	 M214.371,36.816c-4.156,0-7.526-3.371-7.526-7.526c0-4.158,3.37-7.527,7.526-7.527c4.155,0,7.525,3.368,7.525,7.527
	C221.896,33.445,218.526,36.816,214.371,36.816z M267.425,82.344h-12.338V62.562c0-6.553-1.279-10.139-6.063-10.139
	c-6.468,0-8.739,4.915-8.739,10.139v19.783h-12.34V42.861l-0.003-19.576h11.724v25.477c1.57-3.151,6.147-6.518,12.201-6.518
	c11.604,0,15.559,5.243,15.559,17.697V82.344z"/>
<path fill="#519AF7" d="M10.79,23.427c3.748,0,7.095,3.348,7.095,7.094s-3.347,7.095-7.095,7.095c-3.746,0-7.095-3.349-7.095-7.095
	S7.044,23.427,10.79,23.427"/>
<rect x="4.62" y="42.86" fill="#519AF7" width="12.338" height="39.483"/>
<path fill="#F15B44" d="M48.052,42.244c-6.078,0-11.169,2.987-12.832,6.148h-0.173V23.118H24.363v59.225h12.338V62.87
	c0-5.245,1.658-10.709,8.15-10.709c6.408,0,6.655,6.048,6.655,10.709v19.473h12.339V60.237
	C63.846,49.415,60.709,42.244,48.052,42.244z"/>
<path fill="#FDC600" d="M98.084,42.858V47.3c-2.005-2.899-5.326-5.059-11.105-5.059c-11.905,0-18.507,8.532-18.507,20.358
	c0,11.905,6.271,20.357,19.741,20.357c5.508,0,10.025-3.008,11.352-5.061h0.171v4.443h10.686v-0.001V42.858H98.084z M89.32,73.458
	c-5.659,0-9.005-4.039-9.005-10.552c0-6.503,3.346-11.164,9.005-11.164c5.678,0,9.256,4.661,9.256,11.164
	C98.576,69.419,95.074,73.458,89.32,73.458z"/>
<path fill="#3DB366" d="M183.525,62.806c0-12.646-7.898-20.562-19.169-20.562c-13.296,0-20.931,8.96-20.931,19.74
	c0,12.717,7.818,20.977,20.05,20.977c9.008,0,15.192-3.162,18.351-7.171h-0.002l-7.535-5.87c-1.709,2.09-5.76,4.404-10.328,4.404
	c-5.15,0-8.196-3.161-9.138-6.238l-0.099-0.572h28.206C182.931,67.512,183.525,65.272,183.525,62.806z M154.669,58.276
	c0.334-3.855,3.955-7.396,9.44-7.396c4.484,0,8.079,3.333,8.536,7.396H154.669z"/>
<polygon fill="#519AF7" points="134.881,38.548 148.153,38.548 148.153,26.209 111.137,26.209 111.137,38.548 122.542,38.548 
	122.542,82.343 134.881,82.343 "/>
</svg>
