<?xml version="1.0" encoding="utf-8"?>
<!-- Generator: Adobe Illustrator 16.0.0, SVG Export Plug-In . SVG Version: 6.00 Build 0)  -->
<!DOCTYPE svg PUBLIC "-//W3C//DTD SVG 1.1//EN" "http://www.w3.org/Graphics/SVG/1.1/DTD/svg11.dtd">
<svg version="1.1" id="Capa_1" xmlns="http://www.w3.org/2000/svg" xmlns:xlink="http://www.w3.org/1999/xlink" x="0px" y="0px"
	 width="283.46px" height="105.52px" viewBox="0 0 283.46 105.52" enable-background="new 0 0 283.46 105.52" xml:space="preserve">
<g>
	<path fill-rule="evenodd" clip-rule="evenodd" fill="#FFFFFF" d="M202.772,94.68h70.082c3.814,0,6.91-3.092,6.91-6.907V17.69
		c0-3.815-3.095-6.91-6.91-6.91h-70.082c-3.814,0-6.91,3.094-6.91,6.91v70.083C195.862,91.587,198.957,94.68,202.772,94.68
		 M227.942,23.284h11.723v25.477c1.571-3.151,6.148-6.518,12.202-6.518c11.604,0,15.559,5.244,15.559,17.698v22.403h-12.338V62.562
		c0-6.553-1.28-10.139-6.064-10.139c-6.468,0-8.74,4.915-8.74,10.139v19.783h-12.339V42.861L227.942,23.284z M208.202,82.345h12.337
		V42.86h-12.337V82.345z M221.896,29.289c0,4.156-3.37,7.527-7.525,7.527c-4.156,0-7.527-3.371-7.527-7.527
		c0-4.158,3.371-7.527,7.527-7.527C218.526,21.762,221.896,25.13,221.896,29.289"/>
	<path fill="#FFFFFF" d="M10.79,23.427c3.748,0,7.095,3.348,7.095,7.094c0,3.746-3.347,7.094-7.095,7.094
		c-3.746,0-7.095-3.348-7.095-7.094C3.695,26.775,7.044,23.427,10.79,23.427"/>
	<rect x="4.62" y="42.86" fill="#FFFFFF" width="12.338" height="39.483"/>
	<path fill="#FFFFFF" d="M48.052,42.244c-6.078,0-11.169,2.988-12.832,6.149h-0.173V23.118H24.363v59.225h12.338V62.87
		c0-5.245,1.658-10.709,8.15-10.709c6.408,0,6.655,6.048,6.655,10.709v19.473h12.339V60.237
		C63.846,49.415,60.709,42.244,48.052,42.244z"/>
	<path fill="#FFFFFF" d="M98.084,42.858v4.442c-2.005-2.899-5.326-5.059-11.105-5.059c-11.905,0-18.507,8.533-18.507,20.359
		c0,11.905,6.271,20.357,19.741,20.357c5.508,0,10.025-3.008,11.352-5.06h0.171v4.443h10.686v-0.001V42.858H98.084z M89.32,73.458
		c-5.659,0-9.005-4.039-9.005-10.552c0-6.502,3.346-11.164,9.005-11.164c5.678,0,9.256,4.662,9.256,11.164
		C98.576,69.419,95.074,73.458,89.32,73.458z"/>
	<path fill="#FFFFFF" d="M183.525,62.806c0-12.647-7.898-20.563-19.169-20.563c-13.296,0-20.93,8.96-20.93,19.741
		c0,12.716,7.817,20.976,20.049,20.976c9.008,0,15.193-3.162,18.351-7.171h-0.002l-7.536-5.87c-1.708,2.09-5.759,4.404-10.327,4.404
		c-5.151,0-8.197-3.161-9.138-6.238l-0.099-0.572h28.206C182.931,67.512,183.525,65.272,183.525,62.806z M154.669,58.276
		c0.334-3.856,3.956-7.397,9.441-7.397c4.484,0,8.079,3.333,8.536,7.397H154.669z"/>
	<polygon fill="#FFFFFF" points="134.881,38.548 148.153,38.548 148.153,26.209 111.137,26.209 111.137,38.548 122.542,38.548 
		122.542,82.343 134.881,82.343 	"/>
</g>
<g>
</g>
<g>
</g>
<g>
</g>
<g>
</g>
<g>
</g>
<g>
</g>
</svg>
